<svg id="Layer_1" data-name="Layer 1" xmlns="http://www.w3.org/2000/svg" xmlns:xlink="http://www.w3.org/1999/xlink" viewBox="0 0 108.2 158"><defs><style>.cls-1,.cls-6{fill:none;}.cls-2{fill:#dbaf1d;}.cls-3{fill:#231f20;}.cls-4{opacity:0.7;}.cls-5,.cls-8{fill:#ffdb99;}.cls-5{opacity:0.56;}.cls-6{stroke:#fec782;stroke-width:0.26px;}.cls-7{fill:#9d7f0e;}.cls-9{font-size:12px;font-family:ArialMT, Arial;}</style><symbol id="Bee" data-name="Bee" viewBox="0 0 32.49 47.45"><rect class="cls-1" y="0.15" width="32.48" height="47.22"/><path class="cls-2" d="M16.26,44.51c-1.91,0-3.51-2.38-3.51-2.38C9,37.9,9.95,27.42,9.95,27.42c.24-3.69,6.07-2.2,6.07-2.2l.42,0s5.84-1.49,6.07,2.2c0,0,1,10.48-2.8,14.71,0,0-1.61,2.38-3.51,2.38"/><path class="cls-2" d="M20.55,15.35A6.7,6.7,0,0,1,23,15a8.89,8.89,0,0,1,1.16-.76,3.3,3.3,0,0,1-.8-3s-.4-2.41-.67-2.28c0,0,.58-.18.18-.54,0,0,.27.09.27-.76l.22.09.18-.94s-.27-.31-.58.13c0,0-.18-.45.94-.54l.27-.63.71.13-.27.67s.71.8.49,1c0,0-.22-.71-.49-.45l-.49,1,.27,0a4,4,0,0,1-.62.58l.31.09-.31.31s-.27.45,0,.4a.45.45,0,0,0-.09.45,4.83,4.83,0,0,0,.71,2.05,10,10,0,0,1,.54,3,4.76,4.76,0,0,0-.94,1.34,9.4,9.4,0,0,1-2.46,1.38h-.8Z"/><path class="cls-2" d="M19,17S23,19.9,23.33,20.39c0,0,2.19,1.07,2.32,1.79,0,0,1.21-.8,1.52-.76v.13l.67-.4.27.27.76-.49.13.31,1.16-.54-.09.22,1.16-.45s-.13-.58-.4-.54c0,0,.8.27.85.63,0,0,.36.49.54.09,0,0-.31.13-.09.31,0,0,.4-.13.36.18,0,0-.22-.27-.54.09a3.32,3.32,0,0,1-.54,1.07s.36-1,0-.89c0,0-2,.58-2.23.58a6.77,6.77,0,0,1-1.83.31s-1.25,0-1.43.45c0,0-.89.49-1.29-.22,0,0-1.83-2.05-2-1.92,0,0-.58-.49-.8.31,0,0-2.46,1.07-3.3,0Z"/><path class="cls-2" d="M21,29s1.88-3.26,4.87-3.75c0,0,1-.62,1,1.21a37.27,37.27,0,0,0,1.7,11s.27,1.3.76,1.52L29.2,39s.45,1.34.76,1.29c0,0,.36.94.76.94,0,0-.71,0,.54,1.07,0,0,.45-.22.22-.58a.84.84,0,0,1-.09.94s.13.72.45.63l-.27,0-.27.13v.22s-.36-.49-.58-.49a1.09,1.09,0,0,1-.89-.36s.27.22.49,0c0,0-.4-1.21-.45-1.52,0,0-.4-.13-.27.36a3.06,3.06,0,0,1-.22-1.12S27.54,36.77,27.05,36c0,0-1.74-7.55-.89-9.33,0,0,.09-.49-.58,0,0,0-1.21,3.53-3,3.3Z"/><path class="cls-2" d="M11.94,15.35A6.68,6.68,0,0,0,9.53,15a8.72,8.72,0,0,0-1.16-.76,3.3,3.3,0,0,0,.8-3s.4-2.41.67-2.28c0,0-.58-.18-.18-.54,0,0-.27.09-.27-.76l-.22.09L9,6.82s.27-.31.58.13c0,0,.18-.45-.94-.54l-.27-.63-.71.13.27.67s-.71.8-.49,1c0,0,.22-.71.49-.45l.49,1-.27,0a4,4,0,0,0,.63.58l-.31.09.31.31s.27.45,0,.4a.45.45,0,0,1,.09.45,4.85,4.85,0,0,1-.71,2.05,10,10,0,0,0-.54,3,4.72,4.72,0,0,1,.94,1.34A9.4,9.4,0,0,0,11,17.8h.8Z"/><path class="cls-2" d="M13.45,17S9.52,19.9,9.16,20.39c0,0-2.19,1.07-2.32,1.79,0,0-1.21-.8-1.52-.76v.13l-.67-.4-.27.27-.76-.49-.13.31-1.16-.54.09.22-1.16-.45s.13-.58.4-.54c0,0-.8.27-.85.63,0,0-.36.49-.54.09,0,0,.31.13.09.31,0,0-.4-.13-.36.18,0,0,.22-.27.54.09a3.29,3.29,0,0,0,.54,1.07s-.36-1,0-.89c0,0,2,.58,2.23.58a6.78,6.78,0,0,0,1.83.31s1.25,0,1.43.45c0,0,.89.49,1.29-.22,0,0,1.83-2.05,2-1.92,0,0,.58-.49.8.31,0,0,2.46,1.07,3.3,0Z"/><path class="cls-2" d="M11.51,29S9.64,25.69,6.64,25.2c0,0-1-.62-1,1.21a37.34,37.34,0,0,1-1.7,11s-.27,1.3-.76,1.52l.13.09s-.45,1.34-.76,1.29c0,0-.36.94-.76.94,0,0,.72,0-.54,1.07,0,0-.45-.22-.22-.58a.84.84,0,0,0,.09.94s-.13.72-.45.63l.27,0,.27.13v.22s.36-.49.58-.49a1.09,1.09,0,0,0,.9-.36s-.27.22-.49,0c0,0,.4-1.21.45-1.52,0,0,.4-.13.27.36a3.06,3.06,0,0,0,.22-1.12S4.95,36.77,5.44,36c0,0,1.74-7.55.89-9.33,0,0-.09-.49.58,0,0,0,1.21,3.53,3,3.3Z"/><path class="cls-3" d="M31.16.31C29.69-.54,27.9.62,27.9.62c-.31-.22-.8.63-1,.31s-.8.81-1,.58-.85.71-1,.49-.76.8-.89.58-.62.94-.89.71-1,.81-1,.81c-.22-.27-2.28,1.74-2.28,1.74a2,2,0,0,0-1.31.67,9.93,9.93,0,0,0-2.34-.23h0A9.54,9.54,0,0,0,14,6.49a2,2,0,0,0-1.28-.64s-2.05-2-2.28-1.74c0,0-.71-1-1-.81s-.76-.94-.9-.71S7.8,1.78,7.63,2s-.8-.71-1-.49-.85-.89-1-.58S4.9.4,4.59.62c0,0-1.79-1.16-3.26-.31,0,0-.62.53.8.58a12.28,12.28,0,0,1,2.1.54s.09.27.71.31c0,0,.18.22,1,.4s0,.31,1,.54a.86.86,0,0,0,.8.63,4.19,4.19,0,0,0,.9.67,8.1,8.1,0,0,0,1.3.94s2,.71,2.14,1.16a2.6,2.6,0,0,0,.44.57A2.64,2.64,0,0,0,10.36,9a1.56,1.56,0,0,0,.15,1.37,1.08,1.08,0,0,0,.26.45,2,2,0,0,0,1.46.58s.27,0,0,0l-.07,0c-2.17,2.31-1.37,3.73-1.37,3.73l.09.11a1.13,1.13,0,0,0,.09.26,4.75,4.75,0,0,1,.59.76.52.52,0,0,1,0,.35,7.51,7.51,0,0,0,.45,5,4,4,0,0,0,2.36,2.18l0,0c.1,0,0,.05,0,0a2.68,2.68,0,0,1,.18.79c-1.73-.21-4.67-.17-4.83,2.42,0,0-.74,8.2,1.68,13l.05.11c.1.19.21.38.32.56l-.15-.29c1.37,2.05,4.59,2.06,4.59,2.06a6.79,6.79,0,0,0,3.45-1l-.17.21S17.93,44.13,16,44.13l.05,0c-1.91,0-3.51-2.38-3.51-2.38a7.19,7.19,0,0,1-.74-1,7.66,7.66,0,0,0,1,1.45s1.61,2.38,3.51,2.38h-.05c1.91,0,3.51-2.38,3.51-2.38,3.75-4.23,2.8-14.71,2.8-14.71a2.45,2.45,0,0,0-.46-1.35,2.64,2.64,0,0,1,.22.92s0,.14,0,.38c-.39.08-1.84.42-4.19,1.18,0,0-.85.09-1.92.09v0c-1.07,0-1.92-.09-1.92-.09-2.77-.89-4.3-1.21-4.3-1.21s-.08,1-.12,1.85c0-1.09.09-1.78.09-1.78a2.37,2.37,0,0,1,.66-1.58s5.22,1.16,5.54,1.92c.31-.76,5.54-1.92,5.54-1.92a4.24,4.24,0,0,0-3.1-.93c1.26,0,2.74.15,3.47,1.15-.64-1.48-2.57-1.66-4-1.56,0,.14,0,0,0,0a3.52,3.52,0,0,1,.29-.73c1.55-.57,3.3-2.19,2.51-6.75,0,0-.2-.38.8-1.48,0,0,.54-1-.5-2.62,0,.07-.22-.34,0,0a9.93,9.93,0,0,0-1.12-1.54l-.06,0c-.18,0,0,0,0,0,1.37.07,2.66-.27,2.24-2a3.3,3.3,0,0,0-.53-1.4l.05.12a2.51,2.51,0,0,0-.36-.48,2.38,2.38,0,0,1,.31.36,2.32,2.32,0,0,0-1.79-1.38,2.66,2.66,0,0,0,.47-.59c.18-.45,2.14-1.16,2.14-1.16A8.1,8.1,0,0,0,23.84,4a4.19,4.19,0,0,0,.9-.67.86.86,0,0,0,.8-.62c1-.22.22-.36,1-.54s1-.4,1-.4c.63,0,.71-.31.71-.31a12.23,12.23,0,0,1,2.1-.54C31.79.85,31.16.31,31.16.31ZM11.31,39.64A16.41,16.41,0,0,1,10.52,37c.28.55.61.58.61.58,1.34,1.38,2.19,1.25,2.19,1.25a3.32,3.32,0,0,1,1.65.27c.13-.27.4,0,.4,0a1.53,1.53,0,0,0,.89.58V37.38c-3.83,0-5.5-1-5.92-1.3A30.76,30.76,0,0,1,10,32.76l.08.82a3.62,3.62,0,0,1,2.28,2c.67.8.94.18.94.18-.18-1.34,2.95.31,2.95.31v0s3.13-1.65,2.95-.31c0,0,.27.63.94-.18a3.62,3.62,0,0,1,2.17-2,26.83,26.83,0,0,1-.39,2.69c-.63.37-2.26,1.08-5.6,1.08v2.23a1.53,1.53,0,0,0,.89-.58s.27-.22.4,0a3.32,3.32,0,0,1,1.65-.27s.85.13,2.19-1.25a.35.35,0,0,0,.18-.06,13.52,13.52,0,0,1-.84,2.34A9.8,9.8,0,0,1,11.31,39.64ZM9.92,30s1.74.67,2.1,2c0,0,.76.8,1-.22,0,0,.87-.3,3.22,1.2v0l0,0,.06,0c2.34-1.5,3.22-1.2,3.22-1.2.22,1,1,.23,1,.23a3.48,3.48,0,0,1,1.94-1.94c0,.78,0,1.68-.09,2.62a17.73,17.73,0,0,1-6.14,1.51v0A18,18,0,0,1,10,32.65c-.06-1.08-.07-2.08-.06-2.91C9.91,29.85,9.91,29.94,9.92,30Zm.77-4.12a2.17,2.17,0,0,1,.24-.21A2.27,2.27,0,0,0,10.69,25.89Zm.84-.55-.07,0Zm-.44.23.13-.08Z"/><g class="cls-4"><path class="cls-5" d="M12.19,16.72s.54-3.39-1.61-1c0,0-.45.8.09,1.07,0,0-.71.72-.27.8,0,0-7,24.56-4.11,28,0,0,2.32,4.47,3-2.05,0,0,1.61-12.77,1.7-15.27,0,0,1.25-9.2.8-10.27A.93.93,0,0,0,12.19,16.72Z"/><path class="cls-5" d="M20.29,17s-.54-3.39,1.61-1c0,0,.45.8-.09,1.07,0,0,.72.71.27.8,0,0,7,24.56,4.11,28,0,0-2.32,4.47-3-2.05,0,0-1.61-12.77-1.7-15.27,0,0-1.25-9.2-.8-10.27A.93.93,0,0,1,20.29,17Z"/></g><path class="cls-6" d="M10.93,18.17s-1,7.91-.18,8.54L11,27.78"/><path class="cls-6" d="M10.48,25.9a32.85,32.85,0,0,0-2.14,6.61s-.89,1.07-.62,1.61A6.61,6.61,0,0,0,6.2,37.87l-.45,1.07"/><path class="cls-6" d="M10.48,18.26S6.37,34.83,6.64,35.46"/><path class="cls-6" d="M7.72,34.12a16.6,16.6,0,0,1,.71,5.27l.54.27a4.08,4.08,0,0,1,.45,2.23"/><path class="cls-6" d="M8.34,32.51s.54.09.63.54c0,0,1,.72,1.07,1.25"/><path class="cls-6" d="M10.66,26.44a38.3,38.3,0,0,0-.62,7.5s.54,6.88-2.86,6.16"/><path class="cls-6" d="M9.32,33.49s-1,4.55-1.88,5.36l-.54.54.54-.54A5.29,5.29,0,0,0,9.5,40.73"/><path class="cls-6" d="M6.2,37.87a16.61,16.61,0,0,1,1.07,3.21s-1,2.06-.45,2.59c0,0-.18,2.14-.71,1.79"/><path class="cls-6" d="M7.27,41.08a1.25,1.25,0,0,1,.8.89s.81.63,1.16.45"/><path class="cls-6" d="M9.23,43.76s-.09.45-1.25.18c0,0-1.16-.8-1.16-.27"/><path class="cls-6" d="M21.45,18.3s1,7.91.18,8.54l-.27,1.07"/><path class="cls-6" d="M21.9,26A32.93,32.93,0,0,1,24,32.64s.89,1.07.62,1.61A6.61,6.61,0,0,1,26.19,38l.45,1.07"/><path class="cls-6" d="M21.9,17.64S26,35,25.74,35.59"/><path class="cls-6" d="M24.67,34.25A16.6,16.6,0,0,0,24,39.52l-.54.27A4.07,4.07,0,0,0,23,42"/><path class="cls-6" d="M24,32.64s-.54.09-.63.54c0,0-1,.71-1.07,1.25"/><path class="cls-6" d="M21.72,26.57a38.21,38.21,0,0,1,.63,7.5s-.54,6.88,2.86,6.16"/><path class="cls-6" d="M23.06,33.63s1,4.56,1.88,5.36l.54.54L24.94,39a5.29,5.29,0,0,1-2.05,1.88"/><path class="cls-6" d="M26.19,38a16.61,16.61,0,0,0-1.07,3.21s1,2.05.44,2.59c0,0,.18,2.14.71,1.79"/><path class="cls-6" d="M25.12,41.22a1.26,1.26,0,0,0-.81.89s-.8.62-1.16.45"/><path class="cls-6" d="M23.15,43.9s.09.45,1.25.18c0,0,1.16-.8,1.16-.27"/><path class="cls-7" d="M13.66,8.8s.31-1.07-1-1.2c0,0-2.28.27-1.25,1.65A2.1,2.1,0,0,0,13.66,8.8Z"/><path class="cls-8" d="M12.85,8.93s.36-.76-.71-.71c0,0-.67.4-.45.71C11.69,8.93,12,9.38,12.85,8.93Z"/><circle class="cls-7" cx="15.35" cy="9.11" r="0.38"/><path class="cls-7" d="M19.07,8.82s-.31-1.07,1-1.21c0,0,2.28.27,1.25,1.65A2.11,2.11,0,0,1,19.07,8.82Z"/><path class="cls-8" d="M19.87,9s-.36-.76.71-.72c0,0,.67.4.45.72C21,9,20.68,9.4,19.87,9Z"/><circle class="cls-7" cx="17.37" cy="9.13" r="0.38"/><path class="cls-2" d="M12.9,9.47s-.18.22,0,.36-2.32.8-1.92,1.16c0,0-.73-.4-.39-1.61A12,12,0,0,1,12.9,9.47Z"/><path class="cls-2" d="M19.83,9.49s.18.22,0,.36,2.32.8,1.92,1.16c0,0,.73-.4.39-1.61A11.76,11.76,0,0,0,19.83,9.49Z"/><path class="cls-2" d="M14.26,11.31s-.82,2-1.39,2.29a8.07,8.07,0,0,0-.77,2.2s-1.33.76-.35-1.43C11.74,14.37,13.1,11.13,14.26,11.31Z"/><path class="cls-2" d="M15.18,22.13s1.19-.24-.18-1.19c0,0-2.68-1-2.44.42a1.39,1.39,0,0,0,1,1.07A1.34,1.34,0,0,0,15.18,22.13Z"/><path class="cls-2" d="M18.28,11.31s.82,2,1.39,2.29a8.19,8.19,0,0,1,.77,2.2s1.33.76.35-1.43C20.79,14.37,19.44,11.13,18.28,11.31Z"/><path class="cls-2" d="M17.36,22.12s-1.19-.24.18-1.19c0,0,2.68-1,2.44.42a1.39,1.39,0,0,1-1,1.07A1.34,1.34,0,0,1,17.36,22.12Z"/><path class="cls-3" d="M10.31,17.77s1.25-.09,1.43.45a1,1,0,0,0,.36-1.34s.71-2.77-1.34-1.61c0,0-.89.8-.27,1.43C10.48,16.7,9.77,17.6,10.31,17.77Z"/><path class="cls-3" d="M22.08,17.91s-1.25-.09-1.43.45A1,1,0,0,1,20.29,17s-.71-2.77,1.34-1.61c0,0,.89.8.27,1.43C21.9,16.83,22.62,17.73,22.08,17.91Z"/></symbol></defs><title>Bee3</title><use width="32.49" height="47.44" transform="scale(3.33)" xlink:href="#Bee"/><text class="cls-9" transform="translate(2.77 16)">Lorem <tspan x="0" y="14.4">ipsum </tspan></text></svg>