<svg id="Layer_1" data-name="Layer 1" xmlns="http://www.w3.org/2000/svg" viewBox="0 0 1920 1080">
  <defs>
    <style>
      .cls-1 {
        fill: #60c992;
      }

      .cls-1, .cls-2, .cls-3, .cls-4 {
        opacity: 0.4;
        isolation: isolate;
      }

      .cls-2 {
        fill: #ea2a5f;
      }

      .cls-3 {
        fill: #fec83b;
      }

      .cls-4 {
        fill: #ff5e5c;
      }

      .cls-5 {
        fill: none;
      }
    </style>
  </defs>
  <title>Comp CC Asset</title>
  <polygon class="cls-1" points="158.621 755.243 158.621 732.548 148.626 717.367 148.621 755.243 158.621 755.243"/>
  <polygon class="cls-2" points="551.112 269 557.578 259 544.528 259 551.112 269"/>
  <polygon class="cls-3" points="231 82 231 62.545 221 74.044 221 82 231 82"/>
  <polygon class="cls-4" points="92.387 176.367 81.621 189.055 81.636 198.971 101.621 176.367 92.387 176.367"/>
  <polygon class="cls-4" points="220.993 945 242 945 242 935 230.567 935 220.993 945"/>
  <polygon class="cls-2" points="1619.672 810 1634.672 810 1627.314 790.718 1619.672 810"/>
  <polygon class="cls-3" points="72 372.367 62.683 372.367 52 356.71 57.265 350.754 72 372.367"/>
  <polygon class="cls-4" points="687.157 463.367 681.989 463.367 677.204 475.031 692.204 475.031 687.157 463.367"/>
  <polygon class="cls-1" points="374 158.259 359.894 137.633 354 144.319 367.418 164 374 164 374 158.259"/>
  <polygon class="cls-3" points="753.832 139.496 753.832 127.136 745.503 127.136 745.503 147.136 773.335 147.136 773.335 139.496 753.832 139.496"/>
  <rect class="cls-3" x="475.796" y="656.122" width="29.195" height="10"/>
  <polygon class="cls-1" points="755 404.431 755 442.187 765 430.844 765 400 759.431 400 755 404.431"/>
  <polygon class="cls-1" points="277.319 451.847 300.014 451.847 315.195 441.852 277.319 441.847 277.319 451.847"/>
  <polygon class="cls-2" points="631 839.338 641 845.804 641 832.755 631 839.338"/>
  <polygon class="cls-3" points="1296.562 474.227 1316.017 474.227 1304.517 464.227 1296.562 464.227 1296.562 474.227"/>
  <polygon class="cls-4" points="1202.195 335.614 1189.507 324.847 1179.591 324.862 1202.195 344.847 1202.195 335.614"/>
  <polygon class="cls-4" points="885.562 586.22 885.562 607.227 895.562 607.227 895.562 595.794 885.562 586.22"/>
  <polygon class="cls-2" points="431 532.898 431 547.898 450.282 540.541 431 532.898"/>
  <polygon class="cls-2" points="1527 399.898 1527 414.898 1546.281 407.541 1527 399.898"/>
  <polygon class="cls-3" points="1727 122.227 1727 112.91 1742.657 102.227 1748.613 107.492 1727 122.227"/>
  <polygon class="cls-4" points="915.195 930.384 915.195 925.215 903.531 920.431 903.531 935.431 915.195 930.384"/>
  <polygon class="cls-1" points="1103.741 534 1124.367 519.894 1117.681 514 1098 527.418 1098 534 1103.741 534"/>
  <polygon class="cls-3" points="1239.066 997.059 1251.426 997.059 1251.426 988.73 1231.426 988.73 1231.426 1016.562 1239.066 1016.562 1239.066 997.059"/>
  <rect class="cls-3" x="1732.44" y="664.023" width="10" height="29.194"/>
  <polygon class="cls-1" points="974.131 998.227 936.375 998.227 947.718 1008.227 978.562 1008.227 978.562 1002.657 974.131 998.227"/>
  <polygon class="cls-1" points="1667.714 260.545 1667.714 283.241 1677.71 298.422 1677.714 260.545 1667.714 260.545"/>
  <polygon class="cls-2" points="1828.224 998 1821.758 1008 1834.807 1008 1828.224 998"/>
  <polygon class="cls-3" points="1674 879 1674 898.455 1684 886.956 1684 879 1674 879"/>
  <polygon class="cls-4" points="1321.233 744 1332 731.312 1331.985 721.396 1312 744 1321.233 744"/>
  <polygon class="cls-4" points="999.007 259 978 259 978 269 989.433 269 999.007 259"/>
  <polygon class="cls-2" points="1200.664 102.789 1185.664 102.789 1193.021 122.07 1200.664 102.789"/>
  <polygon class="cls-3" points="1838.335 457.422 1847.652 457.422 1858.335 473.078 1853.07 479.034 1838.335 457.422"/>
  <polygon class="cls-4" points="1677.178 529.422 1682.346 529.422 1687.131 517.758 1672.131 517.758 1677.178 529.422"/>
  <polygon class="cls-1" points="1536.335 671.529 1550.441 692.156 1556.335 685.469 1542.917 665.789 1536.335 665.789 1536.335 671.529"/>
  <polygon class="cls-3" points="1156.503 690.293 1156.503 702.652 1164.832 702.652 1164.832 682.652 1137 682.652 1137 690.293 1156.503 690.293"/>
  <rect class="cls-3" x="1405.345" y="163.667" width="29.194" height="10"/>
  <polygon class="cls-1" points="1430 849.569 1430 811.813 1420 823.156 1420 854 1425.569 854 1430 849.569"/>
  <rect class="cls-5" width="1920" height="1080"/>
</svg>
